<svg xmlns="http://www.w3.org/2000/svg" xmlns:xlink="http://www.w3.org/1999/xlink" width="818.629" height="1174.605" viewBox="0 0 818.629 1174.605"><defs><linearGradient id="a" y1="1" x2="1" gradientUnits="objectBoundingBox"><stop offset="0" stop-color="#8c89c8"/><stop offset="1" stop-color="#d295c2"/></linearGradient><clipPath id="b"><path d="M369.086,105.262c20.5,62.779,23.062,102.5,47.4,134.527,23.062,32.03,66.623,55.092,106.34,101.216s76.873,116.59,82,197.306-21.781,172.963-82,166.557c-60.217-5.125-153.745-110.184-228.055-143.5-75.591-32.03-130.683,7.687-175.526,5.125C74.408,562.654,41.1,517.812,18.035,469.126c-24.343-48.686-38.436-99.934-41-152.464s7.687-106.34,52.53-119.152c43.561-12.812,123,15.375,170.4-32.03,46.124-47.4,61.5-170.4,87.122-189.619S348.587,41.2,369.086,105.262Z" transform="translate(23.328 26.917)" fill="url(#a)"/></clipPath><linearGradient id="c" x1="0.5" y1="0" x2="0.5" y2="1" xlink:href="#a"/><clipPath id="d"><rect width="589" height="906" rx="60" transform="translate(-0.086 0.153)" fill="#4f486a"/></clipPath></defs><g transform="translate(0 0)"><rect width="589" height="906" rx="60" transform="translate(229.629 268.605)" fill="#4f486a"/><g clip-path="url(#b)"><rect width="589" height="906" rx="60" transform="translate(229.629 268.605)" fill="url(#c)"/></g><g transform="translate(229.715 268.452)" clip-path="url(#d)"><path d="M392.415,132.179c20.5,62.779,23.062,102.5,47.4,134.527,23.062,32.03,66.623,55.092,106.34,101.216s76.873,116.59,82,197.306-21.781,172.963-82,166.557C485.943,726.66,392.415,621.6,318.1,588.29c-75.591-32.03-130.683,7.687-175.526,5.125-44.842-3.844-78.154-48.686-101.216-97.372-24.343-48.686-38.436-99.934-41-152.464s7.687-106.34,52.53-119.152c43.561-12.812,123,15.375,170.4-32.03,46.124-47.4,61.5-170.4,87.122-189.619S371.916,68.119,392.415,132.179Z" transform="matrix(-0.259, -0.966, 0.966, -0.259, 196.694, 1213.951)" fill="url(#a)"/></g></g></svg>