<svg xmlns="http://www.w3.org/2000/svg" width="26.275" height="26.285" viewBox="0 0 26.275 26.285"><path d="M8.219,26.285a8.214,8.214,0,0,1-2.23-16.118,8.07,8.07,0,0,1,4.251-.053L18.9,1.456A4.929,4.929,0,0,1,22.412,0h0a3.876,3.876,0,0,1,3.873,3.873A4.937,4.937,0,0,1,24.83,7.385l-.736.736a2.206,2.206,0,0,1-1.549.641H20.809v1.1a2.19,2.19,0,0,1-2.19,2.19h-1.1v1.737a2.175,2.175,0,0,1-.642,1.549l-.712.712a8.032,8.032,0,0,1-.051,4.249,8.246,8.246,0,0,1-7.04,5.946,8.383,8.383,0,0,1-.859.045Zm0-14.238A6.024,6.024,0,1,0,14.012,19.7a5.914,5.914,0,0,0-.11-3.614,1.1,1.1,0,0,1,.261-1.134l1.17-1.171V12.047a2.19,2.19,0,0,1,2.19-2.19h1.1v-1.1a2.19,2.19,0,0,1,2.19-2.19h1.737l.736-.736a2.759,2.759,0,0,0,.813-1.963A1.683,1.683,0,0,0,22.413,2.19,2.76,2.76,0,0,0,20.449,3l-9.124,9.123a1.1,1.1,0,0,1-1.135.26,5.982,5.982,0,0,0-1.977-.34ZM5.475,19.714a1.1,1.1,0,1,0,1.1-1.1A1.1,1.1,0,0,0,5.475,19.714Z" transform="translate(-0.009 0)" fill="#fff"/></svg>