<svg xmlns="http://www.w3.org/2000/svg" width="24.825" height="26.867" viewBox="0 0 24.825 26.867"><path d="M18.507,3.246C17.626,2.5,16.7,1.715,15.762.86A3.3,3.3,0,0,0,13.1.029a3.185,3.185,0,0,0-2.275,1.455A22.805,22.805,0,0,0,8.036,8.7,6.852,6.852,0,0,1,7.5,7.791a2.239,2.239,0,0,0-3.694-.529A10.149,10.149,0,0,0,.914,14.45a12.291,12.291,0,0,0,9.2,12.014,13.043,13.043,0,0,0,3.108.394c.034,0,.066.009.1.009.147,0,.291-.012.435-.022A12.379,12.379,0,0,0,25.739,14.456C25.734,9.385,22.385,6.542,18.507,3.246ZM13.582,24.6c-.128,0-.255.013-.384.012a4.13,4.13,0,0,1-2.278-.9,4.1,4.1,0,0,1-1.771-2.862c-.19-1.816.929-4.19,3.216-6.872h0a1.255,1.255,0,0,1,.959-.439h0a1.219,1.219,0,0,1,.944.437c2.1,2.487,3.246,4.782,3.246,6.462A4.187,4.187,0,0,1,13.585,24.6Zm5.985-2.117c-.066.051-.139.093-.206.142a6.388,6.388,0,0,0,.393-2.192c0-2.829-2.054-5.86-3.776-7.905A3.47,3.47,0,0,0,13.329,11.3h0a3.489,3.489,0,0,0-2.66,1.224h0C7.927,15.725,6.67,18.6,6.928,21.08a5.792,5.792,0,0,0,.435,1.668,10.18,10.18,0,0,1-4.207-8.3A7.905,7.905,0,0,1,5.488,8.763a9.143,9.143,0,0,0,.926,1.524,2.068,2.068,0,0,0,2.134.784,2.127,2.127,0,0,0,1.624-1.65,20.882,20.882,0,0,1,2.54-6.741.943.943,0,0,1,.682-.43,1.067,1.067,0,0,1,.862.27c.96.873,1.9,1.679,2.8,2.437,3.737,3.174,6.438,5.466,6.438,9.5a10.112,10.112,0,0,1-3.923,8.027Z" transform="translate(-0.914 0)" fill="#fff"/></svg>