<svg xmlns="http://www.w3.org/2000/svg" width="26.866" height="24.628" viewBox="0 0 26.866 24.628"><path d="M21.269,1H5.6A5.6,5.6,0,0,0,0,6.6V20.03a5.6,5.6,0,0,0,5.6,5.6H21.269a5.6,5.6,0,0,0,5.6-5.6V6.6a5.6,5.6,0,0,0-5.6-5.6ZM5.6,3.239H21.269a3.358,3.358,0,0,1,3.112,2.112l-8.573,8.574a3.366,3.366,0,0,1-4.751,0L2.485,5.351A3.358,3.358,0,0,1,5.6,3.239Zm15.672,20.15H5.6A3.358,3.358,0,0,1,2.239,20.03V8.276l7.236,7.232a5.605,5.605,0,0,0,7.917,0l7.236-7.232V20.03A3.358,3.358,0,0,1,21.269,23.389Z" transform="translate(0 -1)" fill="#fff"/></svg>